# xmcd
#
# Track frame offsets: 
#        172
#        15135
#        31902
#        53795
#        74830
#        91232
#        109020
#        130360
#        154475
#        175050
#        195697
#        209600
#        222130
#        241017
#        265247
#
# Disc length: 3762 seconds
#
# Revision: 0
# Processed by: cddbd v1.4PL0 Copyright (c) Steve Scherf et al.
# Submitted via: ExactAudioCopy v0.90b4
#
DISCID=d10eb00f
DTITLE=Jumpin' Joe Whiting - Rhythm 'n' Groove
DYEAR=1991
DGENRE=Blues
TTITLE0=I'll Be On My Way
TTITLE1=The Way Love Works
TTITLE2=What Will It Take
TTITLE3=Snake Eyes (You Lose)
TTITLE4=Odd Man Out
TTITLE5=Fever
TTITLE6=Clock On The Wall
TTITLE7=Peter Gunn
TTITLE8=In The Midnight Hour
TTITLE9=Sleepwalk
TTITLE10=I'm Convinced
TTITLE11=Wild Weekend
TTITLE12=What I'd Say
TTITLE13=Smokie Pt. II
TTITLE14=Breakaway
EXTD=
EXTT0=
EXTT1=
EXTT2=
EXTT3=
EXTT4=
EXTT5=
EXTT6=
EXTT7=
EXTT8=
EXTT9=
EXTT10=
EXTT11=
EXTT12=
EXTT13=
EXTT14=
PLAYORDER=
